<?xml version="1.0" encoding="UTF-8"?><svg id="Layer_1" xmlns="http://www.w3.org/2000/svg" viewBox="0 0 493.27 346.5"><defs><style>.cls-1{fill:#fff;}.cls-2{fill:#bd3223;}.cls-3{fill:#fefefe;}</style></defs><path class="cls-3" d="M344.8,100.55C345.77,46.02,302.77,1.04,248.78,.02c-54.61-1.03-99,41.8-100.41,95.53-1.46,55.49,42.16,99.48,95.32,100.97,55.24,1.54,99.83-42.03,101.12-95.97Zm77.95,108.22c.51,.9,1.36,1.35,2.07,1.93,2.67,2.17,5.36,4.32,8.07,6.44,1.32,1.03,2.62,3.05,3.97,2.79,1.31-.25,2.25-2.33,3.4-3.57,.56-.61,.67-1.01,0-1.69-3.39-3.43-6.72-6.91-10.06-10.39-.49-.51-.86-.73-1.55-.17-1.92,1.59-3.92,3.1-5.91,4.65Z"/><path class="cls-2" d="M344.8,100.55c-1.29,53.94-45.88,97.51-101.12,95.97-53.16-1.49-96.78-45.48-95.32-100.97C149.78,41.82,194.16-1.01,248.78,.02c54,1.02,96.99,46,96.02,100.53Zm-89.09,61.05l-.34-.31c.93-1.1,1.91-2.16,2.76-3.32,1.09-1.46,2.01-3.02,2-4.95,0-1.87-.93-3.2-2.48-3.51-1.59-.31-2.96,.51-3.6,2.3-2,5.62-5.57,10.04-10.29,13.58-1.81,1.36-3.7,2.59-5.97,4.17,5.37,.37,10.24,.48,15.1-.17,8.76-1.17,16.85-3.94,23.22-10.4,4.32-4.39,7.26-9.46,6.65-15.93-.28-2.95-1.69-5.28-4.57-6.34-2.95-1.08-5.69-.53-8.05,1.59-2.16,1.94-3.11,4.49-3.62,7.27-.55,3.04-1.37,5.99-2.91,8.69-1.87,3.26-4.11,6.15-7.91,7.33Zm-21.69-115.11c-2.57,10.23-.3,21.84,8.34,29.93,6.26,5.86,13.8,9.48,21.54,12.82,5.7,2.46,11.57,4.51,17.02,7.51,2.7,1.48,5.22,3.18,6.86,5.96,4.62,7.83,2.68,19.88-4.29,26.08-1.1,.98-2.29,1.86-3.55,2.88,.41,.15,.63,.29,.87,.32,5.11,.59,8,5.73,8.01,9.75,0,1.04-.67,2.66,.04,2.97,1.11,.48,2.21-.81,3.31-1.37,.11-.06,.21-.14,.31-.21,8.24-5.49,14.98-12.47,20.49-20.66,6.07-9.02,10.21-18.86,10.71-29.74,1.32-29.04-11.71-50.36-36.38-64.82-6.79-3.98-14.4-6.17-22.45-6.06-1.6,.02-3.24,.08-5.24,.96,2.32,.69,4.31,.81,5.7,2.67-4.97-.42-9.41,.4-13.86,2.8,2.86,1.11,5.51,2,6.96,4.98-3.66-.51-6.96-.98-10.7-.57,2.75,2.61,4.8,5.2,6.14,8.8-1.85-1.02-3.29-1.87-4.78-2.63-1.15-.58-2.44-2.1-3.4-1.53-1,.6,.07,2.42-.15,3.7-.04,.21,.15,.45,.18,.68,.4,2.5,1.89,4.63,2.45,7.36-3.34-3.16-4.57-7.24-6.2-11.21-.74,.97-.92,1.88-1.09,2.81-.59,3.25,.53,6.33,.92,9.48,.1,.83,1.21,2.11,.44,2.33-1.16,.32-1.31-1.31-1.73-2.2-.38-.79-.65-1.64-.87-2.48-.43-1.66-.78-3.34-1.27-5.44-2.16,3.69-1.94,7.47-2.47,11.36-1.46-2.31-1.21-4.73-1.87-7.24Zm3.15-15.94c-3.42,.94-6.48,2.31-9.41,3.96-10.24,5.77-18.85,13.53-26.42,22.4-2.38,2.79-4.57,4.17-8.18,3.07-2.17-.66-4.15-.18-5.51,1.96-.6,.94-1.49,1.68-2.23,2.54-11.03,12.95-17.29,27.54-15.31,44.91,.56,4.92,1.74,9.69,3.64,14.45,1.04-1.25,1.79-2.54,2.88-3.4,1.91-1.49,1.88-3.21,1.58-5.39-1.96-14.24,.51-27.6,8.35-39.81,.98-1.53,2.09-2.98,3.22-4.41,1.07-1.35,2.15-2.7,3.79-4.06-5.18,7.77-8.13,15.96-9.5,24.74-1.12,7.12-1.14,14.24-.03,21.37,.13,.85,.07,1.84,1.53,1.32,4.17-1.5,8.49-1.46,12.84-1.1,4.06,.33,8.12,.84,12.21,.61,5.83-.33,9.24-3.04,10.41-8.75,.72-3.52,1.72-6.92,2.98-10.26,.77-2.05,1.49-4.13,2.08-6.23,.99-3.53,1.46-7.15,.79-10.8-1.15-6.23-5.44-9.65-10.97-11.83-1.24-.49-1.56-.93-1.14-2.29,2.44-7.85,5.7-15.17,12.2-20.63-8.74,3.9-13.73,11.59-19.09,18.91,4.95-14.85,15.82-24.15,29.3-31.28Zm-40.12,110.23c6.76-.07,13.38-1.21,19.6-4.17,3.43-1.63,6.58-3.71,8.87-6.79,4.25-5.73,4.18-12.01,0-18.96-.78-1.3-1.25-1.53-2.27-.15-4.08,5.52-9.58,7.95-16.47,7.53-4.75-.29-9.43-1.37-14.22-1.19-6.45,.24-11.69,2.91-15.91,7.73-1.05,1.2-1.34,2.32-.48,3.87,1.58,2.85,3.18,5.68,4.97,8.4,.66,1.01,1.51,1.55,2.66,1.88,4.31,1.23,8.7,1.8,13.26,1.83Zm-11.24,2.13c.12,.32,.13,.46,.2,.55,5.19,6.2,11.22,11.44,17.98,15.85,.52,.34,1.03,.39,1.6,.39,4.39,.05,8.77-.08,13.11-.88,5.55-1.02,10.83-2.66,15.19-6.48,6.36-5.58,6.31-15.93-.11-21.27-1.24-1.03-2-1.27-3.22,.27-6.53,8.23-15.14,12.68-25.6,13.67-6.47,.61-12.74-.31-19.15-2.1Zm54.88-8.74c.65,1.45,1.34,2.91,1.25,4.48-.11,1.73,.77,1.79,2.07,1.69,7.1-.59,13.3-3.4,18.96-7.56,4.99-3.67,9.08-8.09,11.27-14.01,1.57-4.25,1.78-8.53,.01-13.03-1.18,13.66-17.5,27.46-33.55,28.44Zm-31.32,29.2c8.98,4.6,18.19,7.3,28.05,2.74,3.57-1.65,6.28-4.31,7.71-8.09,1.67-4.4,.09-8.35-4.04-9.9-.48,1.68-1.08,3.32-2.08,4.78-2.75,4.01-6.75,6.25-11.19,7.82-5.96,2.11-12.18,2.47-18.45,2.65Zm2.59-130.15c.08,3.02,3.9,4.97,6.41,3.41,1.53-.96,2.91-2.16,4.34-3.28,3.52-2.75,7.38-4.71,11.87-5.24,1.49-.18,2.82,.08,4.05,1.06,.81,.64,.76,2.35,1.91,2.13,.9-.17,1.6-1.33,2.39-2.03,.38-.33,.77-.64,1.17-.94,1.77-1.33,1.8-1.44-.02-2.69-3.84-2.63-8.19-3.39-12.72-3.13-6.53,.38-12.61,2.04-17.43,6.82-1.14,1.13-1.92,2.46-1.98,3.9Zm51.06,66.38c-2.15,16.59-12.89,24.57-27.61,28.95,1.35,.89,2.75,1.51,3.52,2.73,.85,1.35,1.87,1.45,3.18,.98,9.9-3.54,17.5-9.71,21.69-19.51,1.82-4.27,1.73-8.66-.78-13.13Zm-10.68-2.01c1.14,6.45-1.3,11.17-6.73,14.47-1.55,.95-3.19,1.74-4.9,2.34-2.42,.84-4.87,1.62-7.29,2.45-.57,.2-1.3,.35-1.13,1.22,.52,2.64,.05,5.19-.93,7.78,1.54-.17,2.71-.79,3.88-1.31,6.34-2.81,12.36-6.07,16.64-11.81,3.34-4.48,3.58-10.48,.47-15.15Zm-10.34-1.73c.52,5.76-1.72,9.68-6.2,12.37-1.44,.87-3,1.55-4.48,2.37-.54,.3-1.83,.32-1.01,1.43,.64,.88,.16,2.95,2.35,2.34,4.87-1.35,8.52-4.2,10.6-8.81,1.44-3.2,1.56-6.42-1.26-9.7Z"/><path class="cls-1" d="M377.37,232.89c.89-1.49,1.83-2.95,2.64-4.47,.47-.89,1.05-1.21,2.07-1.2,9.92,.04,19.83,.04,29.75,.02,2.44,0,3.78,1.45,4.73,3.4,1.86,3.78,1.92,7.89,1.93,11.96,.02,14.31-.02,28.62-.03,42.93,0,4.82-1.96,7.09-6.78,7.75-.87,.12-1.75,.15-2.63,.15-12.49,.03-24.98,.05-37.47,.05-5.86,0-8.91-3.12-8.91-8.97,0-17.45,0-34.9-.07-52.35,0-1.57,.44-2.14,1.99-2.41,3.7-.63,7.38-1.45,11.05-2.26,1.06-.23,1.46-.04,1.38,1.12-.1,1.36-.02,2.74-.02,4.11l.37,.16Zm26.68,27.41c0-5.77-.03-11.54,.02-17.31,0-1.04-.24-1.37-1.33-1.36-8.09,.05-16.18,.06-24.27,0-1.34-.01-1.51,.5-1.51,1.64,.03,11.41,.04,22.82,0,34.23,0,1.23,.33,1.57,1.57,1.56,8.03-.06,16.05-.06,24.08,0,1.17,0,1.47-.31,1.46-1.46-.06-5.77-.03-11.54-.03-17.31Z"/><path class="cls-1" d="M172.08,258.63c0,2.04,0,4.07,0,6.11,0,8.72-.04,17.45,.04,26.17,.01,1.46-.46,1.89-1.84,2.09-3.85,.54-7.68,1.21-11.5,1.92-1.11,.21-1.4-.08-1.4-1.18,.01-21.59,0-43.17-.04-64.76,0-1.09,.33-1.38,1.38-1.36,3.95,.05,7.91,.09,11.86-.02,1.35-.04,1.54,.44,1.53,1.6-.04,6.46,.02,12.93-.05,19.39-.01,1.24,.28,1.59,1.54,1.57,6.15-.1,12.3-.13,18.45-.09,1.23,0,1.43-.41,1.42-1.5-.05-6.34,.04-12.68-.07-19.01-.03-1.59,.51-1.82,1.88-1.8,3.76,.07,7.53,.07,11.29-.04,1.3-.04,1.68,.26,1.66,1.6-.07,6.46-.02,12.93-.05,19.39,0,1.25,0,2.27,1.72,1.95,.79-.15,.88,.38,.93,1.02,.31,3.75,.63,7.5,1.02,11.24,.1,1-.27,1.13-1.13,1.15-2.52,.06-2.52,.09-2.52,2.61,0,5.84,0,11.67-.01,17.51,0,3.45-2.3,6.84-5.52,8-4.3,1.55-8.81,1.84-13.33,2.03-.91,.04-1.02-.37-1.02-1.11,0-3.58-.03-7.15-.09-10.73-.01-.74,.17-1.01,.97-1.2,3.74-.89,4.62-2.07,4.63-5.87,0-3.14-.07-6.28,.04-9.41,.05-1.36-.26-1.85-1.71-1.83-4.89,.07-9.79-.05-14.68,.02-1.18,.02-1.83-.36-2.39-1.34-.81-1.44-1.75-2.81-2.64-4.22l-.35,.12Z"/><path class="cls-1" d="M91.53,286.79c-.58,2.03-1.15,4.05-1.75,6.07-.17,.56-.25,1.09-1.02,1.39-7.2,2.79-22.82-1.29-27.87-7.41-4.28-5.19-6.81-11.26-8.26-17.73-2.66-11.8-2.82-23.76-1.72-35.76,.38-4.14,.46-4.14,4.56-4.86,2.84-.5,5.68-1,8.53-1.47,2.34-.39,2.29-.37,2.04,2.11-.83,8.12-1.53,16.24-1.32,24.42,.19,7.18,1.99,13.86,6.18,19.8,1.61,2.29,3.78,3.63,6.47,4.14,4.5,.85,8.98,.46,13.48-.22,1.43-.22,1.06-1.14,1.06-1.92,0-11.36-.03-22.72-.05-34.08,0-4.14,.05-8.29-.03-12.43-.03-1.29,.35-1.58,1.59-1.48,3.81,.3,7.64,.52,11.46,.69,1,.04,1.23,.39,1.22,1.34-.03,20.4-.03,40.79,0,61.19,0,1.03-.27,1.41-1.33,1.5-3.87,.33-7.75,.71-11.61,1.17-1.2,.14-1.37-.32-1.33-1.33,.07-1.69,.02-3.38,.02-5.07l-.32-.06Z"/><path class="cls-1" d="M460.77,241.46c7.71,7.54,15.01,14.69,22.31,21.84,2.6,2.55,5.21,5.08,7.79,7.65,1.82,1.8,2.25,4.15,2.37,6.56,.15,2.78-.28,5.51-.98,8.19-.69,2.64-2.41,4.51-4.75,5.79-2.63,1.44-5.49,2.15-8.48,2.16-7.66,.03-15.32,.04-22.97-.05-2.85-.03-4.9-1.78-6.6-3.85-2.52-3.07-3.76-6.75-4.77-10.53-.2-.76-.03-1.13,.74-1.38,3.81-1.26,7.61-2.54,11.38-3.89,.91-.33,1,0,1.19,.76,.94,3.72,1.65,4.25,5.44,4.27,3.64,.02,7.28,.02,10.92,.05,.77,0,1.59,.04,1.97-.76,.38-.81-.18-1.47-.7-1.99-3.37-3.36-6.77-6.71-10.17-10.04-6.18-6.06-12.35-12.13-18.59-18.14-1.03-.99-.86-1.44,.18-2.19,1.72-1.24,3.35-2.62,4.99-4.46-1.62,0-3.24,0-4.86,0-3.38,0-3.36,0-2.71-3.29,.62-3.14,1.25-6.27,1.79-9.42,.19-1.14,.66-1.48,1.82-1.48,10.99,.03,21.97-.02,32.96-.03,4.25,0,7.68,2.28,9.18,6.2,.99,2.58,1.53,5.29,1.86,8.04,.12,1.04-.24,1.42-1.23,1.6-3.39,.63-6.76,1.34-10.15,2-.65,.13-1.34,.43-1.58-.65-.42-1.89-1.95-2.47-3.61-2.82-2.74-.56-5.51-.06-8.27-.16-1.98-.07-3.97-.01-6.48-.01Z"/><path class="cls-1" d="M123.32,241.46c2.8,2.75,5.18,5.1,7.57,7.44,7.4,7.23,14.8,14.46,22.2,21.69,2.76,2.69,2.91,6.14,2.63,9.63-.35,4.38-1,8.67-5.38,11.15-2.63,1.48-5.47,2.26-8.44,2.29-7.78,.08-15.56,.05-23.34-.04-2.93-.04-5.01-1.88-6.72-4.02-2.42-3.04-3.64-6.68-4.61-10.39-.2-.76,0-1.11,.78-1.36,3.81-1.25,7.6-2.55,11.38-3.88,.74-.26,.91-.1,1.13,.62,1.28,4.18,1.6,4.41,5.88,4.44,3.39,.03,6.78,.02,10.16,.02,.86,0,1.93,.24,2.34-.74,.42-1.01-.41-1.78-1.06-2.42-3.61-3.57-7.25-7.11-10.88-10.66-5.92-5.79-11.83-11.59-17.78-17.34-.74-.72-.77-1.05,.08-1.67,1.89-1.4,3.71-2.9,6.03-4.74-2.84,0-5.12-.04-7.39,.02-1.15,.03-1.51-.19-1.23-1.47,.8-3.67,1.45-7.38,2.12-11.08,.2-1.1,.5-1.67,1.87-1.67,11.04,.06,22.08-.02,33.13,0,4.19,0,7.19,2.05,8.84,5.84,1.15,2.65,1.7,5.49,2.01,8.38,.11,.99-.16,1.44-1.21,1.63-3.45,.62-6.89,1.35-10.33,2.01-.49,.09-1.1,.46-1.32-.47-.55-2.3-2.4-3-4.41-3.11-3.13-.16-6.27-.07-9.4-.08-1.35,0-2.7,0-4.64,0Z"/><path class="cls-1" d="M17.82,241.41c4.54,4.81,9.11,9.8,13.85,14.63,4.61,4.7,9.31,9.32,14.14,13.78,3.01,2.78,3.6,6.16,3.4,9.91-.13,2.32-.34,4.67-1.23,6.82-1.81,4.37-5.61,6.02-9.92,6.78-4.05,.71-8.14,.26-12.21,.33-4.08,.07-8.16-.17-12.23,.02-3.91,.18-6.59-1.72-8.71-4.61-2.14-2.91-3.3-6.3-4.23-9.77-.23-.84,0-1.22,.85-1.5,3.75-1.21,7.5-2.45,11.21-3.8,1.04-.38,1.09,.07,1.29,.82,.99,3.64,1.71,4.18,5.52,4.19,3.64,.01,7.28,0,10.92,.03,.79,0,1.59-.02,1.94-.82,.32-.73-.23-1.35-.69-1.82-3-3.03-6.04-6.02-9.08-9.01-6.63-6.5-13.25-13-19.92-19.46-.82-.8-.76-1.16,.11-1.81,1.85-1.38,3.62-2.86,5.85-4.65-2.84,0-5.18-.02-7.52,.01-.92,.01-1.34-.05-1.09-1.23,.84-3.85,1.55-7.74,2.25-11.62,.17-.94,.43-1.35,1.51-1.34,11.29,.02,22.59-.1,33.88,0,3.92,.03,6.74,2.2,8.32,5.76,1.15,2.59,1.66,5.38,2.01,8.19,.14,1.1-.1,1.72-1.35,1.94-3.33,.57-6.65,1.28-9.97,1.91-.61,.12-1.33,.51-1.59-.62-.41-1.76-1.81-2.44-3.43-2.79-.49-.1-.99-.25-1.48-.25-4.3-.02-8.61-.01-12.41-.01Z"/><path class="cls-1" d="M262.77,293.38c-6.65,0-13.31,0-19.96,0-2.32,0-2.32,0-1.99-2.24,.55-3.79,1.14-7.57,1.6-11.36,.14-1.18,.5-1.69,1.73-1.5,2.26,.35,1.44-1.36,1.59-2.43,.18-1.29-.15-1.89-1.67-1.84-3.06,.1-3.08,0-2.78-2.97,.25-2.5,.61-4.99,.75-7.49,.07-1.26,.56-1.72,1.71-1.5,1.89,.35,2.21-.5,2.21-2.24-.04-10.29,.08-20.58,.06-30.88,0-1.44,.37-1.78,1.77-1.73,3.64,.11,7.28,.12,10.92,.01,1.43-.04,1.9,.24,1.89,1.79-.09,10.36-.02,20.71-.12,31.07-.02,1.72,.48,2.14,2.09,2.01,1.68-.14,3.39,0,5.08-.01,.75,0,1.17,.1,1.04,1.04-.44,3.17-.83,6.34-1.17,9.52-.1,.94-.44,1.26-1.39,1.21-1.31-.07-2.63,.06-3.95,.03-.92-.02-1.44,.22-1.29,1.26,.06,.43,.06,.88,0,1.31-.2,1.35,.21,1.81,1.7,1.79,7.28-.11,14.56-.08,21.84-.1q2.4,0,2.17,2.34c-.37,3.81-.82,7.61-1.07,11.43-.09,1.37-.62,1.56-1.83,1.56-6.97-.06-13.93-.03-20.9-.03v-.05Z"/><path class="cls-1" d="M335.54,241.91c-5.64,0-11.29-.05-16.93,.03-1.46,.02-1.78-.4-1.6-1.8,.47-3.79,.82-7.6,1.15-11.41,.09-1.01,.44-1.36,1.49-1.35,13.87,.04,27.73,.03,41.6,.01,.89,0,1.39,.06,1.22,1.21-.56,3.97-1.06,7.95-1.49,11.94-.14,1.26-.62,1.6-1.87,1.58-4.14-.09-8.28,0-12.42-.06-1.24-.02-1.72,.2-1.71,1.6,.04,10.66-.04,21.33-.03,32,0,2.94,1.17,5.27,4.1,6.31,.83,.3,.9,.68,.72,1.37-1.03,3.94-2.08,7.87-3.05,11.83-.28,1.13-1.05,.87-1.75,.86-7.92-.2-14.25-6.89-14.49-15.37-.09-3.2-.04-6.4-.04-9.6,0-8.16,.02-16.31-.03-24.47,0-1.21,.22-1.95,1.47-2.39,1.32-.47,2.53-1.22,3.79-1.85l-.13-.42Z"/><path class="cls-1" d="M299.7,241.46c-3.49,0-6.99-.07-10.48,.03-1.34,.04-1.54-.35-1.38-1.6,.44-3.61,.77-7.23,1.07-10.85,.1-1.18,.41-1.7,1.77-1.69,7.78,.08,15.55,.07,23.33,.01,1.28,0,1.73,.21,1.5,1.61-.61,3.71-1.09,7.44-1.55,11.17-.12,1.01-.48,1.47-1.52,1.32-.43-.06-.88,.04-1.31-.02-1.31-.19-1.68,.31-1.67,1.64,.05,11.79,.05,23.58,0,35.37,0,1.33,.35,1.68,1.67,1.66,3.75-.06,3.77,0,3.59,3.75-.13,2.76-.35,5.51-.46,8.26-.04,1.1-.26,1.63-1.6,1.61-7.9-.08-15.81-.06-23.71-.01-1.07,0-1.42-.27-1.3-1.36,.42-3.8,.8-7.61,1.12-11.42,.07-.86,.41-.98,1.17-.99,1.52-.03,3.56,.77,4.42-.37,.73-.96,.21-2.89,.21-4.39,.03-9.53,.08-19.06,.05-28.6,0-1.29,.34-2.08,1.53-2.64,1.29-.6,2.5-1.38,3.74-2.09l-.18-.44Z"/><path class="cls-1" d="M223.56,241.46c-3.41,0-6.82-.08-10.23,.04-1.58,.06-2.01-.35-1.8-1.95,.49-3.67,.81-7.35,1.13-11.04,.08-.92,.44-1.12,1.28-1.12,8.09,.02,16.19,.02,24.28,0,.86,0,1.19,.15,1.02,1.19-.62,3.83-1.16,7.68-1.6,11.54-.14,1.19-.6,1.37-1.66,1.36-2.84-.03-2.84,.02-2.84,2.89,0,11.36,0,22.71-.04,34.07,0,1.27,.3,1.72,1.66,1.7,3.8-.06,3.8,0,3.59,3.72-.15,2.82-.35,5.63-.44,8.45-.03,.98-.2,1.45-1.35,1.44-8.03-.05-16.06-.05-24.09,0-1.06,0-1.25-.34-1.15-1.31,.39-3.68,.76-7.36,1.05-11.05,.09-1.1,.41-1.43,1.58-1.4,4.32,.12,4.32,.06,4.32-4.19,.01-9.72,.06-19.45,0-29.17,0-1.41,.45-2.15,1.68-2.71,1.27-.59,2.45-1.38,3.67-2.09l-.08-.38Z"/><path class="cls-1" d="M317.31,318.37c.62-2.06,2.16-1.97,3.76-1.95,3.2,.06,6.4,.06,9.6,0,1.58-.03,2.44,.71,2.9,2.13,.46,1.4,.5,2.84,.5,4.28,0,5.89-.02,11.79-.05,17.68,0,2.16-.79,3.24-2.96,3.28-5.77,.11-11.54,.07-17.3-.02-1.78-.03-2.76-1.31-2.78-2.98-.08-7.4-.04-14.8-.05-22.2,0-.37-.08-.84,.39-.95,1.71-.38,3.42-.84,5.16-1,.95-.08,.19,1.06,.82,1.72Zm10.75,11.87c0-2.2-.03-4.39,.01-6.59,.02-.88-.27-1.22-1.19-1.21-2.89,.05-5.77,.05-8.66,0-.95-.01-1.31,.24-1.3,1.27,.06,4.33,.05,8.66,.01,12.99,0,.88,.23,1.2,1.16,1.18,2.89-.05,5.78-.07,8.66,.01,1.17,.03,1.34-.47,1.32-1.45-.05-2.07-.01-4.14-.01-6.21Z"/><path class="cls-1" d="M302.54,342.1c-1.29,2.3-3.38,1.84-5.33,1.85-1.57,0-3.14,.04-4.7,0-3.14-.09-5.15-1.65-5.63-4.73-.73-4.67-.14-9.39-.33-14.08-.03-.64,.46-.83,.9-1.06,.58-.31,1.16-.63,1.7-.92-.15-.51-.44-.37-.66-.37-3.69-.03-3.54,.02-2.48-3.65,.58-2.01,1.5-2.53,3.52-2.48,5.64,.16,11.29,.1,16.93,.02,1.37-.02,1.69,.33,1.45,1.66-.8,4.43-.76,4.43-5.31,4.43-2.82,0-5.65,.04-8.47-.02-1.08-.02-1.56,.18-1.54,1.42,.08,3.76,.03,7.53,.02,11.29,0,1.61,.72,2.44,2.4,2.4,2.13-.05,4.27-.09,6.4-.02,1.03,.03,1.41-.2,1.42-1.32,.02-3.28,.08-3.34-3.18-3.27-1.25,.03-1.71-.23-1.69-1.61,.06-4.18,0-4.18,4.16-4.18,1.88,0,3.76,.04,5.64-.01,.83-.02,1.07,.25,1.06,1.07-.04,5.27-.05,10.54-.02,15.81,0,.92-.26,1.34-1.22,1.45-1.48,.17-3.23,1.09-4.34,.57-1.13-.53,.05-2.62-.7-4.24Z"/><path class="cls-1" d="M197.44,318.34c.5-1.89,1.83-1.96,3.36-1.92,3.26,.08,6.52,.08,9.78,0,1.77-.05,2.68,.79,3.12,2.36,.39,1.4,.48,2.84,.48,4.29,0,5.77,0,11.54,0,17.31,0,2.35-.85,3.4-3.24,3.44-5.58,.1-11.16,.09-16.74,.02-2.02-.03-3.15-1.22-3.16-3.23-.05-7.27-.02-14.55-.03-21.82,0-.49-.12-1.05,.58-1.2,1.53-.32,3.06-.65,4.61-.91,1.4-.24,.45,1.15,1.26,1.68Zm10.71,11.86h0c0-2.19-.04-4.39,.02-6.58,.02-.91-.28-1.19-1.18-1.18-2.95,.04-5.89,.05-8.84,0-.92-.01-1.17,.31-1.16,1.2,.03,4.33,.03,8.65-.01,12.98-.01,1,.35,1.29,1.31,1.27,2.88-.05,5.77-.06,8.65,0,1.04,.03,1.26-.36,1.24-1.3-.06-2.13-.02-4.26-.02-6.39Z"/><path class="cls-1" d="M232.88,326.8c4.05,.95,4.34,1.33,4.33,5.52,0,1.82,0,3.64,0,5.46-.02,3.88-1.69,5.94-5.51,6.64-2.51,.46-4.99,.12-7.42-.67-.77-.25-1.24-.61-.67-1.46,.1-.15,.15-.34,.23-.52,.46-1.1,.64-2.51,1.45-3.2,.81-.7,2.09,.33,3.21,.41,2.15,.16,2.43,0,2.77-2.22q.72-4.74-3.91-4.73c-3.46,0-3.48,0-3.46,3.55,.01,1.79-.32,3.49-1.06,5.11-.59,1.3-1.54,2.27-2.86,2.85-2.6,1.15-3.47,.62-3.45-2.13,0-1.18-.39-2.47,1.13-3.21,.53-.25,.7-5.68,.26-5.81-2.76-.78-.88-2.98-1.41-4.43-.15-.39-.05-1,.58-.93,1.58,.17,1.59-.82,1.45-1.88-.16-1.19,.9-3.16-1.74-2.9-.08,0-.23-.26-.27-.42-.04-.17,0-.37,.02-.56q.21-4.7,4.88-4.7c2.89,0,5.78-.07,8.66,.04,1.8,.07,3.76,.14,4.69,2.12,1.02,2.15,.85,4.26-.58,6.22-.43,.59-.85,1.2-1.31,1.84Zm-9-2.66c.02,2.66,.68,3.04,2.81,1.89,.22-.12,.42-.27,.62-.42,.9-.73,1.88-1.66,1.5-2.8-.34-1.02-1.63-.39-2.48-.46-1.45-.12-3.13-.35-2.45,1.79Z"/><path class="cls-1" d="M242.9,322.89c-1.32-.64-3.32,.31-3.43-.64-.21-1.7,.52-3.53,.93-5.29,.13-.57,.73-.36,1.14-.36,5.27,0,10.54-.03,15.8,0,1.93,.01,2.96,1.09,3,3.07,.04,2.19,.06,4.39,0,6.58-.09,2.9-1.41,5.05-4.21,6.06-1.35,.49-1.28,1.02-.57,2.11,1.24,1.89,2.57,3.6,4.91,4.07,.82,.16,.8,.61,.75,1.18-.07,.81-.16,1.62-.23,2.43-.23,2.96-.22,2.92-3.19,2.29-1.84-.39-3.14-1.5-4.3-2.84-1.27-1.47-2.29-3.12-3.22-4.83-.27-.49-.36-1.66-1.34-1.05-.87,.53-2.4,.35-2.42,1.93-.02,1.19,0,2.38,0,3.57,0,.56,.15,1.18-.02,1.68-.81,2.37-2.83,.63-4.22,1.15-.78,.29-1.63,.16-1.47-1.15,.34-2.83-.28-5.46-1.79-7.87-.51-.82-.36-1.4,.55-1.74,1.08-.41,1.22-1.26,1.18-2.28-.06-1.25-.02-2.51-.01-3.76,.02-1.75-.5-3.73,2.18-4.32Zm3.61,3.46c0,.94,.03,1.88,0,2.82-.03,.82,.26,.99,1,.68,1.85-.77,3.72-1.48,5.56-2.28,2-.86,1.64-2.72,1.45-4.24-.19-1.52-1.63-.44-2.47-.69-.58-.17-1.24-.03-1.87-.03q-3.67,0-3.65,3.74Z"/><path class="cls-1" d="M136.52,337.99c-1.89-.54-1.85-1.72-1.84-3.01,.06-3.64,.03-7.28,0-10.92,0-.48,.34-1.42-.45-1.38-2.03,.1-1.26-1.14-1.12-2.07q.62-4.04,4.76-4.04c5.33,0,10.67,.05,16-.03,1.27-.02,1.56,.36,1.54,1.57-.06,4.14,.01,8.28,.01,12.42,0,4.56-1.95,8.2-5.32,11.17-2.3,2.03-5.13,2.18-7.96,2.26-2.57,.08-5.14,.02-7.72,.07-.92,.02-1.44-.22-1.31-1.26,.06-.5,.01-1,.02-1.5q.02-2.97,3.38-3.29Zm4.12-7.42h.01c0,2.2,0,4.39,0,6.59,0,.64-.09,1.18,.88,1.29,3.45,.39,7.13-2.47,7.52-5.94,.32-2.88,.23-5.76,.24-8.65,0-1-.36-1.28-1.33-1.25-2.01,.06-4.02,.08-6.02-.02-1.14-.06-1.34,.4-1.32,1.4,.06,2.2,.02,4.39,.02,6.59Z"/><path class="cls-1" d="M352.36,325.73c0-2.69,0-5.06,0-7.44,0-.38-.15-.94,.03-1.1,1.48-1.23,3.26-.27,4.88-.56,.84-.15,.88,.42,.88,1.04,0,7.34,.06,14.68-.03,22.02-.04,2.97-4.23,5.51-6.9,4.37-.11-.05-.23-.09-.31-.18-.49-.55-.07-5.42,.57-5.79,.76-.45,.96-1.07,.96-1.88,0-2.02-.5-3.81-1.95-5.32-2.06-2.15-4.33-3.96-7.02-5.26-1.18-.57-1.61-.47-1.59,1,.08,5.27-.01,10.54,.06,15.81,.02,1.3-.34,1.7-1.66,1.69-4.28-.03-4.26,.02-4.24-4.33,.03-7.15,.08-14.3,.02-21.45-.01-1.39,.3-1.96,1.74-1.74,.67,.1,1.38,.08,2.07,0,1.47-.17,2.46,.08,2.12,1.92-.05,.29-.27,.86,.5,.93,4,.37,7,2.42,9.23,5.69,.1,.14,.25,.24,.61,.57Z"/><path class="cls-1" d="M273.63,316.51c2.7,0,5.4,.09,8.09-.03,1.45-.07,1.48,.41,1.17,1.59-1.19,4.56-1.15,4.57-5.87,4.58-1.25,0-2.51,.11-3.76,.01-1.22-.09-1.44,.42-1.46,1.52-.03,1.18,.37,1.5,1.5,1.47,2.7-.07,5.39,0,8.09-.04,.87-.02,1.16,.1,1.04,1.12-.55,4.39-.5,4.39-4.97,4.39-1.38,0-2.77,.12-4.14-.03-1.41-.15-1.75,.5-1.67,1.69,.05,.88,.04,1.76,.18,2.63,.29,1.77,1.31,2.79,3.19,2.79,2.07,0,4.14,.04,6.21-.02,.96-.03,1.27,.29,1.02,1.2-.02,.06-.04,.12-.05,.18q-.75,4.59-5.46,4.49c-3.21-.07-6.41-.05-8.63-3.09-1.66-2.28-2.1-4.8-1.92-7.47,.12-1.74-.18-2.79-2.25-2.36-.88,.18-1.09-.28-.91-1.09,.18-.86,.35-1.73,.39-2.6,.06-1.28,.31-2.14,1.94-1.84,1.32,.24,1.05-.88,1.09-1.64,.04-.8,.03-1.56-1.13-1.39-.25,.04-.5-.02-.75,0-1.26,.16-1.73-.16-1.49-1.62,.72-4.42,.65-4.44,5.09-4.44,1.82,0,3.64,0,5.46,0Z"/><path class="cls-1" d="M168.11,316.51c2.82,0,5.65,.04,8.47-.02,1.04-.03,1.43,.22,1.03,1.26-.04,.12-.07,.24-.1,.36q-1.19,4.52-5.9,4.55c-1.13,0-2.26,.06-3.39,.02-1.03-.03-1.76-.02-1.72,1.43,.04,1.28,.45,1.57,1.64,1.54,2.63-.08,5.27,0,7.9-.03,.84,0,1.18,.04,1.02,1.12-.68,4.38-.62,4.39-4.97,4.39-1.51,0-3.01,.06-4.52-.02-1.02-.06-1.33,.33-1.26,1.28,.07,.87-.01,1.76,.08,2.63,.22,2.14,1.3,3.14,3.42,3.17,2.01,.03,4.02,.06,6.02-.01,.95-.03,1.15,.27,1.06,1.18-.45,4.73-.43,4.83-5.15,4.65-2.57-.1-5.26,.34-7.54-1.59-2.77-2.34-3.59-5.35-3.38-8.76,.11-1.74-.05-2.99-2.28-2.55-.92,.18-1.05-.35-.89-1.11,.16-.8,.31-1.61,.37-2.42,.1-1.28,.25-2.32,2.02-2,1.43,.26,.92-.96,1-1.65,.09-.78,.09-1.39-1.08-1.43-2.47-.07-2.47-.15-2.02-2.72q.58-3.28,3.94-3.28c2.07,0,4.14,0,6.21,0Z"/><path class="cls-1" d="M422.75,208.77c1.99-1.56,3.99-3.06,5.91-4.65,.68-.56,1.05-.35,1.55,.17,3.34,3.48,6.67,6.96,10.06,10.39,.67,.68,.56,1.08,0,1.69-1.15,1.24-2.09,3.32-3.4,3.57-1.35,.26-2.66-1.76-3.97-2.79-2.71-2.12-5.39-4.28-8.07-6.44-.71-.58-1.57-1.03-2.07-1.93Z"/><path class="cls-1" d="M329,308.91c-1.84,1.48-3.6,2.84-5.29,4.29-.68,.58-1.04,.18-1.29-.3-.29-.55-1.45-.88-.55-1.81,1.26-1.29,2.52-2.58,3.76-3.9,.37-.4,.64-.46,1.07-.08,.69,.61,1.45,1.14,2.3,1.8Z"/><path class="cls-3" d="M234.02,46.49c.67,2.51,.41,4.93,1.87,7.24,.54-3.9,.31-7.68,2.47-11.36,.48,2.1,.84,3.78,1.27,5.44,.22,.85,.49,1.7,.87,2.48,.42,.89,.57,2.52,1.73,2.2,.77-.22-.33-1.5-.44-2.33-.39-3.15-1.51-6.22-.92-9.48,.17-.94,.35-1.84,1.09-2.81,1.64,3.97,2.86,8.05,6.2,11.21-.56-2.73-2.05-4.87-2.45-7.36-.04-.23-.22-.47-.18-.68,.22-1.28-.85-3.1,.15-3.7,.96-.58,2.25,.94,3.4,1.53,1.49,.76,2.93,1.61,4.78,2.63-1.35-3.6-3.4-6.19-6.14-8.8,3.73-.41,7.04,.06,10.7,.57-1.46-2.98-4.1-3.87-6.96-4.98,4.45-2.41,8.89-3.22,13.86-2.8-1.4-1.86-3.39-1.99-5.7-2.67,2-.88,3.64-.93,5.24-.96,8.05-.11,15.66,2.08,22.45,6.06,24.67,14.46,37.7,35.78,36.38,64.82-.5,10.87-4.63,20.72-10.71,29.74-5.52,8.19-12.26,15.17-20.49,20.66-.1,.07-.2,.15-.31,.21-1.1,.56-2.2,1.85-3.31,1.37-.71-.31-.03-1.94-.04-2.97-.01-4.02-2.9-9.15-8.01-9.75-.24-.03-.46-.17-.87-.32,1.26-1.02,2.45-1.9,3.55-2.88,6.97-6.2,8.9-18.25,4.29-26.08-1.64-2.78-4.16-4.48-6.86-5.96-5.45-3-11.33-5.05-17.02-7.51-7.74-3.34-15.28-6.96-21.54-12.82-8.64-8.09-10.91-19.7-8.34-29.93Zm35.15-14.79c43.29,19.17,50.92,65.08,33.32,95.42,.94-.3,.95-.29,1.45-.87,5.16-6.07,8.8-12.96,10.82-20.65,4.32-16.38,1.98-31.99-5.93-46.79-5.43-10.14-13.11-18.18-23.62-23.22-5.06-2.43-10.4-3.84-16.04-3.89Z"/><path class="cls-3" d="M237.17,30.56c-13.48,7.14-24.35,16.44-29.3,31.28,5.36-7.32,10.35-15,19.09-18.91-6.5,5.46-9.75,12.79-12.2,20.63-.42,1.36-.1,1.8,1.14,2.29,5.53,2.18,9.81,5.6,10.97,11.83,.68,3.65,.2,7.26-.79,10.8-.59,2.11-1.31,4.18-2.08,6.23-1.26,3.35-2.26,6.75-2.98,10.26-1.17,5.71-4.58,8.42-10.41,8.75-4.09,.23-8.15-.28-12.21-.61-4.35-.35-8.66-.4-12.84,1.1-1.45,.52-1.4-.47-1.53-1.32-1.11-7.12-1.08-14.25,.03-21.37,1.38-8.78,4.33-16.97,9.5-24.74-1.64,1.36-2.72,2.71-3.79,4.06-1.13,1.43-2.24,2.88-3.22,4.41-7.84,12.2-10.31,25.57-8.35,39.81,.3,2.18,.33,3.9-1.58,5.39-1.09,.85-1.85,2.14-2.88,3.4-1.9-4.76-3.08-9.53-3.64-14.45-1.98-17.38,4.28-31.96,15.31-44.91,.73-.86,1.63-1.6,2.23-2.54,1.36-2.14,3.34-2.62,5.51-1.96,3.61,1.1,5.8-.28,8.18-3.07,7.57-8.87,16.18-16.63,26.42-22.4,2.93-1.65,5.99-3.02,9.41-3.96Z"/><path class="cls-3" d="M197.05,140.79c-4.56-.04-8.95-.6-13.26-1.83-1.15-.33-2-.87-2.66-1.88-1.78-2.73-3.39-5.55-4.97-8.4-.86-1.55-.56-2.67,.48-3.87,4.22-4.82,9.45-7.49,15.91-7.73,4.79-.18,9.47,.9,14.22,1.19,6.89,.42,12.39-2.01,16.47-7.53,1.02-1.38,1.49-1.15,2.27,.15,4.19,6.95,4.26,13.23,0,18.96-2.29,3.08-5.44,5.16-8.87,6.79-6.23,2.96-12.85,4.1-19.6,4.17Z"/><path class="cls-3" d="M185.81,142.92c6.41,1.8,12.69,2.71,19.15,2.1,10.46-.99,19.07-5.43,25.6-13.67,1.22-1.54,1.98-1.3,3.22-.27,6.41,5.34,6.47,15.69,.11,21.27-4.36,3.83-9.64,5.46-15.19,6.48-4.34,.8-8.72,.93-13.11,.88-.57,0-1.09-.06-1.6-.39-6.77-4.41-12.79-9.66-17.98-15.85-.07-.09-.09-.23-.2-.55Z"/><path class="cls-3" d="M255.71,161.6c3.8-1.18,6.05-4.08,7.91-7.33,1.54-2.69,2.36-5.65,2.91-8.69,.5-2.78,1.46-5.33,3.62-7.27,2.35-2.11,5.1-2.67,8.05-1.59,2.89,1.06,4.29,3.39,4.57,6.34,.61,6.46-2.33,11.54-6.65,15.93-6.37,6.46-14.46,9.23-23.22,10.4-4.86,.65-9.73,.54-15.1,.17,2.26-1.58,4.16-2.82,5.97-4.17,4.72-3.54,8.29-7.96,10.29-13.58,.64-1.79,2.01-2.61,3.6-2.3,1.55,.31,2.47,1.64,2.48,3.51,0,1.93-.92,3.49-2,4.95-.86,1.15-1.84,2.21-2.76,3.32-.25,.06-.51,.28-.38,.45,.22,.3,.52,.12,.72-.15Z"/><path class="cls-3" d="M240.69,134.18c16.05-.98,32.38-14.78,33.55-28.44,1.77,4.51,1.56,8.79-.01,13.03-2.19,5.91-6.28,10.34-11.27,14.01-5.66,4.16-11.86,6.98-18.96,7.56-1.29,.11-2.17,.04-2.07-1.69,.1-1.56-.59-3.03-1.25-4.48Z"/><path class="cls-3" d="M209.37,163.38c6.27-.18,12.48-.54,18.45-2.65,4.44-1.57,8.44-3.81,11.19-7.82,1-1.46,1.6-3.09,2.08-4.78,4.13,1.55,5.71,5.49,4.04,9.9-1.43,3.78-4.15,6.44-7.71,8.09-9.86,4.56-19.06,1.86-28.05-2.74Z"/><path class="cls-3" d="M211.96,33.23c.06-1.43,.85-2.77,1.98-3.9,4.82-4.78,10.9-6.44,17.43-6.82,4.54-.26,8.88,.49,12.72,3.13,1.81,1.24,1.79,1.36,.02,2.69-.4,.3-.79,.61-1.17,.94-.8,.71-1.5,1.86-2.39,2.03-1.14,.22-1.1-1.49-1.91-2.13-1.23-.98-2.57-1.24-4.05-1.06-4.49,.54-8.36,2.49-11.87,5.24-1.43,1.12-2.81,2.32-4.34,3.28-2.51,1.57-6.33-.39-6.41-3.41Z"/><path class="cls-3" d="M263.02,99.61c2.51,4.48,2.6,8.86,.78,13.13-4.19,9.81-11.79,15.97-21.69,19.51-1.31,.47-2.33,.38-3.18-.98-.77-1.22-2.17-1.83-3.52-2.73,14.72-4.38,25.46-12.36,27.61-28.95Z"/><path class="cls-3" d="M252.33,97.61c3.11,4.67,2.87,10.66-.47,15.15-4.28,5.74-10.3,9.01-16.64,11.81-1.17,.52-2.34,1.14-3.88,1.31,.99-2.59,1.45-5.14,.93-7.78-.17-.88,.56-1.03,1.13-1.22,2.43-.83,4.87-1.61,7.29-2.45,1.72-.6,3.35-1.4,4.9-2.34,5.43-3.3,7.86-8.03,6.73-14.47Z"/><path class="cls-3" d="M242,95.87c2.82,3.28,2.7,6.5,1.26,9.7-2.08,4.62-5.73,7.47-10.6,8.81-2.18,.6-1.7-1.47-2.35-2.34-.82-1.12,.47-1.13,1.01-1.43,1.48-.82,3.03-1.5,4.48-2.37,4.48-2.69,6.72-6.61,6.2-12.37Z"/><path class="cls-2" d="M269.17,31.7c5.64,.04,10.97,1.46,16.04,3.89,10.51,5.04,18.19,13.07,23.62,23.22,7.92,14.79,10.25,30.41,5.93,46.79-2.03,7.69-5.67,14.58-10.82,20.65-.49,.58-.51,.57-1.45,.87,17.6-30.34,9.97-76.24-33.32-95.42Z"/><path class="cls-2" d="M255.71,161.6c-.2,.26-.49,.44-.72,.15-.13-.17,.12-.4,.38-.45,.11,.1,.23,.21,.34,.31Z"/></svg>